<svg xmlns="http://www.w3.org/2000/svg" viewBox="0 0 768 336"><defs><style>.a{fill:#f2f2f2;}</style></defs><title>WeTeeIt</title><circle class="a" cx="176.4" cy="172.32" r="11.91" transform="translate(-20.47 23.82) rotate(-7.3)"/><circle class="a" cx="180.41" cy="203.63" r="11.91"/><circle class="a" cx="184.42" cy="234.93" r="11.91" transform="translate(-28.36 25.34) rotate(-7.3)"/><path class="a" d="M294.81,215.39a130.07,130.07,0,0,1-102.93,77.72c-71.14,9.12-136.43-41.34-145.55-112.48a130,130,0,0,1,28.85-99.5l54.27,66.1,39.19-34.59.79.54.59-.69,46.61,23.57,35.52-76.94a130.16,130.16,0,0,1,39.14,46.09l16.17-2.07a145.54,145.54,0,0,0-79.6-74.75l-5.12-2-56,66.14L94.8,42.79,90.39,46A145.48,145.48,0,0,0,31,182.59c10.2,79.57,83.23,136,162.8,125.81a145.61,145.61,0,0,0,118.45-95.25ZM227.32,44.84a129.64,129.64,0,0,1,11.74,5.85l-29.73,64.4-29.07-14.7ZM95.08,61.72l60.51,41.88-24.36,21.5L85.79,69.76Q90.23,65.55,95.08,61.72Z"/><path class="a" d="M378.22,108.84,398,106.3,392.37,192l-19.93,2.55L351,153.73l-10.65,44.9-19.81,2.53-27.26-81.43,20.4-2.62,16.19,54.25L344,113.23l4.08-.52,28.19,52.71Z"/><path class="a" d="M444.46,186.65q-16.84,2.15-25.61-4.81T408.05,159q-2-15.72,4.24-24.85t20.49-11q27.68-3.54,31.73,28.09l.7,5.48-38,4.88q1.21,5.76,5.22,8.15t11.87,1.38a60.3,60.3,0,0,0,10.57-2.36,58.16,58.16,0,0,0,8.72-3.36l-.62,15.95A62.61,62.61,0,0,1,444.46,186.65ZM425.69,150.2,447,147.47q-2.1-11.75-12.06-10.47a9.74,9.74,0,0,0-7.14,4Q425.41,144.31,425.69,150.2Z"/><path class="a" d="M524.42,90.11l1.42,11.13-24.06,3.08,9.28,72.43-12.41,1.59-9.28-72.43L465.25,109l-1.43-11.13Z"/><path class="a" d="M564.1,171q-16.08,2.05-24.25-4.89t-10.2-22.68q-1.95-15.27,3.85-24.09t18.91-10.51q12.75-1.63,20.39,5t9.72,22.91l.47,3.68-41.37,5.3q1.38,8.94,6.4,12.71t15.21,2.46a51.3,51.3,0,0,0,18.07-5.45L581,166.31A54.92,54.92,0,0,1,564.1,171Zm-23.5-33.24L571,133.89q-2.71-17.49-17.28-15.62-7.17.93-10.52,5.91T540.6,137.78Z"/><path class="a" d="M627.21,162.93Q611.13,165,603,158t-10.19-22.68q-1.95-15.26,3.84-24.09t18.91-10.51q12.76-1.64,20.4,5t9.72,22.92l.47,3.67-41.37,5.3q1.38,8.94,6.39,12.71t15.21,2.47a51.5,51.5,0,0,0,18.08-5.46l-.33,10.82A54.37,54.37,0,0,1,627.21,162.93ZM603.7,129.7l30.42-3.9q-2.72-17.47-17.28-15.61-7.17.91-10.53,5.91T603.7,129.7Z"/><path class="a" d="M662.85,157.3l-10.7-83.56,20.45-2.62,10.71,83.56Z"/><path class="a" d="M728.24,134.23A29.65,29.65,0,0,0,738.37,131l-.79,15.56q-4.25,3-12.35,4-11,1.41-17.7-4.1t-8.42-18.61l-2.91-22.67-9.26,1.19-1.82-14.22,9.26-1.18-1.57-12.3,18.37-6.32,2.08,16.2,17.89-2.3L733,100.4l-17.89,2.29L717.94,125q.73,5.71,3.19,7.77C722.76,134.14,725.14,134.63,728.24,134.23Z"/></svg>